<svg width="378" height="380" viewBox="0 0 378 380" fill="none" xmlns="http://www.w3.org/2000/svg">
<path d="M256.25 60.3198C218.965 94.8916 172.403 142.288 140.75 178.185C134.578 185.185 107.75 256.864 114.75 262.185C121.75 267.506 195.25 237.914 201.25 233.685C222.094 218.991 276.84 163.384 316.25 122.178M256.25 60.3198C276.093 41.9201 293.309 27.1529 304.25 19.6848C335.75 -1.81515 377.664 56.2838 356.25 79.6848C349.47 87.0931 334.506 103.09 316.25 122.178M256.25 60.3198L316.25 122.178" stroke="#F1642E" stroke-width="30" stroke-linecap="round"/>
<path d="M319.5 221.27V312.685C319.5 339.747 297.562 361.685 270.5 361.685H66.5C39.438 361.685 17.5 339.747 17.5 312.685V106.685C17.5 79.6229 39.438 57.6848 66.5 57.6848H160.698" stroke="#F1642E" stroke-width="35" stroke-linecap="round"/>
</svg>
