<svg width="389" height="389" viewBox="0 0 389 389" fill="none" xmlns="http://www.w3.org/2000/svg">
<path d="M217.623 389H168.794C158.556 389 149.886 381.652 148.209 371.545L142.472 336.304C139.868 335.354 137.286 334.318 134.749 333.236L106.373 354.841C98.5182 360.798 86.5817 360.203 79.388 353.384L43.9523 319.82C36.9137 313.133 35.4357 302.232 40.4436 293.913L60.1478 261.166C57.8308 256.311 55.7563 251.301 53.9695 246.204L16.3718 237.929C6.70726 235.788 0 227.403 0 217.539L0.0225076 168.704C0.0450152 158.421 7.41375 149.77 17.5197 148.137L55.8463 141.892C57.3694 138.053 59.0674 134.257 60.8993 130.549L39.8272 96.0585C34.7517 87.761 36.1647 76.8823 43.1596 70.1518L78.4402 36.3452C85.5226 29.4609 97.3941 28.7105 105.381 34.712L137.463 58.8092C138.963 58.2139 140.464 57.6399 142.008 57.0884L148.23 17.4554C149.884 7.34835 158.556 0 168.794 0H217.623C227.354 0 235.915 6.88439 237.989 16.3962L246.926 57.0659C248.316 57.5736 249.684 58.0588 251.052 58.6103L285.406 35.2847C293.328 29.9448 304.537 30.8277 311.465 37.4032L346.923 70.9672C354.403 78.0504 355.616 89.3493 349.814 97.8443L327.882 130.129C329.824 134.013 331.589 137.985 333.177 142.023L371.525 148.29C381.652 149.944 389 158.596 389 168.857L388.977 217.691C388.977 227.423 382.071 235.984 372.583 238.037L334.986 246.268C333.375 250.88 331.543 255.382 329.491 259.751L350.431 290.182C356.234 298.633 355.086 309.932 347.695 317.037C347.695 317.037 319.364 344.202 312.458 350.844C305.552 357.486 294.366 358.435 286.399 353.118L255.685 332.551C252.53 333.963 249.287 335.287 245.933 336.501L238.012 372.625C235.915 382.116 227.354 389 217.623 389ZM171.574 364.903H215.019L223.844 324.718C224.771 320.504 227.882 317.105 231.986 315.803C238.672 313.707 245.07 311.169 251.204 308.036C255.109 306.05 259.786 306.336 263.383 308.764L297.627 331.692L328.981 301.614L305.593 267.631C303.056 263.925 302.768 259.135 304.887 255.163C308.638 248.101 311.749 240.51 314.132 232.588C315.39 228.395 318.81 225.217 323.09 224.29L364.858 215.133L364.881 171.683L322.318 164.71C317.926 163.982 314.286 160.892 312.852 156.677C310.292 149.13 307.181 142.157 303.32 135.36C301.069 131.366 301.245 126.422 303.85 122.649L328.32 86.5917L296.768 56.7132L262.017 80.3027C261.642 80.7666 261.267 81.163 260.848 81.5169C257.273 84.7171 252.066 85.4675 247.72 83.4153C242.843 81.1205 237.724 79.3547 232.54 77.7215C227.686 76.177 224.332 71.7187 224.156 66.6214L214.999 24.0984H171.575L164.537 67.1729L164.073 67.0842C162.991 71.5862 160.212 76.4622 156.35 77.699C150.988 79.4197 145.737 81.2518 140.729 83.6567C136.272 85.7526 131.043 85.0023 127.424 81.6933C127.093 81.4069 126.763 81.053 126.454 80.7003L93.1127 55.654L61.7583 85.7101L84.0659 122.187C84.331 122.539 84.6173 122.893 84.8386 123.268C87.3545 127.041 87.552 131.896 85.3463 135.847C81.6838 142.401 78.594 149.374 76.1457 156.523C74.7115 160.738 71.0702 163.828 66.6575 164.533L24.1169 171.484L24.0944 214.934L65.8622 224.114C70.1212 225.063 73.5623 228.241 74.8202 232.433C77.2473 240.62 80.5134 248.52 84.506 255.912C86.5354 259.664 86.4254 264.21 84.2197 267.85L62.3973 304.084L93.9279 333.963L125.9 309.644C129.541 306.864 134.505 306.4 138.587 308.452C144.434 311.365 150.502 313.748 156.812 315.734C161.137 317.102 164.335 320.788 165.086 325.267L171.574 364.903ZM195.757 267.83C156.504 267.83 124.555 235.877 124.555 196.619C124.555 157.34 156.504 125.387 195.757 125.387C235.032 125.387 266.981 157.34 266.981 196.619C267.004 235.877 235.054 267.83 195.757 267.83ZM195.757 149.484C169.787 149.484 148.649 170.625 148.649 196.619C148.649 222.592 169.787 243.733 195.757 243.733C221.75 243.733 242.887 222.592 242.887 196.619C242.887 170.624 221.75 149.484 195.757 149.484Z" fill="#F1642E"/>
</svg>
