<svg width="388" height="388" viewBox="0 0 388 388" fill="none" xmlns="http://www.w3.org/2000/svg">
<path d="M217.064 388H168.361C158.148 388 149.5 380.671 147.828 370.59L142.106 335.439C139.509 334.492 136.933 333.458 134.403 332.379L106.1 353.929C98.265 359.871 86.3591 359.277 79.1839 352.475L43.8393 318.998C36.8188 312.328 35.3446 301.455 40.3397 293.158L59.9932 260.494C57.6821 255.652 55.613 250.655 53.8307 245.571L16.3297 237.317C6.69002 235.182 0 226.818 0 216.979L0.0224497 168.27C0.0448995 158.013 7.39469 149.385 17.4746 147.756L55.7028 141.527C57.2219 137.698 58.9156 133.912 60.7427 130.214L39.7248 95.8116C34.6624 87.5354 36.0717 76.6847 43.0486 69.9715L78.2386 36.2518C85.3027 29.3851 97.1437 28.6367 105.11 34.6227L137.109 58.658C138.606 58.0642 140.103 57.4917 141.643 56.9416L147.849 17.4105C149.499 7.32944 158.148 0 168.361 0H217.064C226.77 0 235.308 6.86667 237.377 16.354L246.291 56.9192C247.678 57.4256 249.042 57.9096 250.407 58.4596L284.673 35.194C292.574 29.8678 303.754 30.7485 310.664 37.307L346.031 70.7847C353.492 77.8497 354.702 89.1196 348.915 97.5928L327.039 129.794C328.976 133.669 330.737 137.63 332.321 141.658L370.57 147.908C380.671 149.559 388 158.188 388 168.422L387.978 217.132C387.978 226.838 381.089 235.378 371.625 237.425L334.124 245.635C332.518 250.235 330.691 254.725 328.644 259.084L349.53 289.436C355.318 297.865 354.173 309.135 346.801 316.222L311.655 349.942C304.766 356.567 293.609 357.513 285.663 352.21L255.028 331.696C251.881 333.104 248.646 334.425 245.301 335.636L237.4 371.667C235.308 381.133 226.77 388 217.064 388ZM171.133 363.965H214.466L223.269 323.884C224.193 319.68 227.296 316.29 231.389 314.991C238.058 312.901 244.44 310.369 250.558 307.244C254.453 305.263 259.119 305.549 262.706 307.97L296.862 330.839L328.135 300.839L304.808 266.943C302.277 263.246 301.99 258.469 304.103 254.507C307.844 247.463 310.948 239.892 313.325 231.99C314.579 227.808 317.991 224.638 322.26 223.714L363.92 214.579L363.943 171.241L321.489 164.286C317.109 163.56 313.478 160.478 312.048 156.274C309.495 148.747 306.391 141.791 302.54 135.012C300.295 131.028 300.471 126.097 303.069 122.334L327.475 86.3691L296.005 56.5674L261.344 80.0962C260.969 80.559 260.595 80.9544 260.177 81.3074C256.612 84.4994 251.418 85.2478 247.083 83.2009C242.219 80.912 237.113 79.1507 231.942 77.5217C227.1 75.9812 223.755 71.5344 223.579 66.4502L214.446 24.0365H171.134L164.114 67.0003L163.651 66.9117C162.572 71.4022 159.8 76.2656 155.948 77.4992C150.6 79.2156 145.362 81.043 140.367 83.4416C135.922 85.5322 130.706 84.7838 127.097 81.4833C126.766 81.1976 126.437 80.8446 126.129 80.4929L92.8733 55.5109L61.5996 85.4898L83.8498 121.873C84.1142 122.224 84.3998 122.577 84.6205 122.951C87.1299 126.715 87.327 131.557 85.1269 135.497C81.4738 142.035 78.392 148.99 75.9499 156.121C74.5194 160.325 70.8875 163.407 66.4861 164.11L24.0549 171.043L24.0324 214.381L65.6929 223.538C69.9409 224.485 73.3732 227.654 74.6279 231.835C77.0487 240.002 80.3064 247.881 84.2888 255.254C86.313 258.996 86.2032 263.531 84.0032 267.162L62.2369 303.302L93.6865 333.104L125.576 308.848C129.208 306.075 134.16 305.612 138.23 307.659C144.062 310.564 150.115 312.942 156.409 314.923C160.723 316.287 163.913 319.963 164.661 324.431L171.133 363.965ZM195.254 267.142C156.102 267.142 124.234 235.271 124.234 196.114C124.234 156.936 156.102 125.064 195.254 125.064C234.428 125.064 266.295 156.936 266.295 196.114C266.317 235.271 234.45 267.142 195.254 267.142ZM195.254 149.1C169.351 149.1 148.267 170.186 148.267 196.114C148.267 222.02 169.351 243.106 195.254 243.106C221.18 243.106 242.263 222.02 242.263 196.114C242.263 170.185 221.18 149.1 195.254 149.1Z" fill="#504E76"/>
</svg>
