<svg width="398" height="400" viewBox="0 0 398 400" fill="none" xmlns="http://www.w3.org/2000/svg">
<path d="M72.9999 144.5C77.1133 123.39 42.2921 97.7081 57.4999 82.5C76.4995 63.5 73.5013 65.5 89.501 52C107.161 37.0988 137.999 80 148.499 75C158.999 70 151.138 17.5 174.5 17.5C201.501 17.5 196.501 17.5 220 17.5C243.111 17.5001 237.532 52.5449 242.999 75C248.467 97.4552 286.663 37.1715 305.5 52C331 72.0744 323.5 67.9999 341 87.5C355.036 103.141 314 130 320.5 144.5C325.994 156.758 317.944 132.054 323 144.5C329.5 160.5 380 154.933 380 175C380 201.5 380 187.5 380 216.5C380 240.666 329.758 228.678 320.5 251M72.9999 144.5C71.4296 152.559 75.6971 136.745 72.9999 144.5ZM72.9999 251C78.5002 262.5 69.6057 243 72.9999 251C65.8108 235.969 17.5014 231 17.5007 220.5C17.4992 195.274 17.5005 205.726 17.5007 180.5C17.501 150 68.9999 156 72.9999 144.5M251.5 322C263.5 318 241.754 325.249 251.5 322C228.612 329.63 243.431 382.5 220 382.5C196.568 382.5 200.431 382.5 177 382.5C153.568 382.5 163.5 332 148.499 325.5C145 323.984 157.5 328.5 147 324C129.12 316.337 102.412 354.387 92.9999 347.5C72.4995 332.5 76.4995 335.5 57.4999 317.5C44.6639 305.339 80.0002 267.5 72.9999 251M320.5 251C323.738 243.192 317.261 258.808 320.5 251C315.108 264 354.276 293.977 341 310C326.5 327.5 326 328 307.5 344C294.119 355.573 266 317.167 251.5 322" stroke="#F1642E" stroke-width="35"/>
<circle cx="199.001" cy="200" r="65" stroke="#F1642E" stroke-width="35"/>
</svg>
