<svg width="312" height="312" viewBox="0 0 312 312" fill="none" xmlns="http://www.w3.org/2000/svg">
<path d="M174.04 311.059H134.99C126.802 311.059 119.868 305.183 118.527 297.101L113.939 268.921C111.857 268.162 109.792 267.333 107.763 266.468L85.07 283.744C78.788 288.508 69.242 288.032 63.489 282.579L35.15 255.74C29.521 250.393 28.339 241.676 32.344 235.024L48.102 208.838C46.249 204.956 44.59 200.95 43.161 196.874L13.093 190.257C5.364 188.545 0 181.84 0 173.952L0.018 134.902C0.036 126.679 5.929 119.762 14.011 118.456L44.662 113.462C45.88 110.392 47.238 107.357 48.703 104.392L31.851 76.812C27.792 70.177 28.922 61.478 34.516 56.096L62.731 29.063C68.395 23.558 77.889 22.958 84.276 27.757L109.933 47.026C111.133 46.55 112.333 46.091 113.568 45.65L118.544 13.958C119.867 5.876 126.802 0 134.99 0H174.04C181.822 0 188.668 5.505 190.327 13.111L197.474 45.632C198.586 46.038 199.68 46.426 200.774 46.867L228.248 28.215C234.583 23.945 243.547 24.651 249.088 29.909L277.445 56.748C283.427 62.412 284.397 71.447 279.757 78.24L262.217 104.056C263.77 107.162 265.182 110.338 266.452 113.567L297.12 118.578C305.219 119.901 311.095 126.819 311.095 135.024L311.077 174.074C311.077 181.856 305.554 188.702 297.966 190.343L267.898 196.925C266.61 200.613 265.145 204.213 263.504 207.707L280.25 232.04C284.891 238.798 283.973 247.833 278.062 253.515L249.882 280.548C244.359 285.859 235.413 286.618 229.042 282.366L204.479 265.92C201.956 267.049 199.362 268.108 196.68 269.079L190.345 297.965C188.668 305.554 181.822 311.059 174.04 311.059ZM137.213 291.79H171.957L179.015 259.657C179.756 256.287 182.244 253.569 185.526 252.528C190.873 250.852 195.99 248.822 200.895 246.317C204.018 244.729 207.759 244.958 210.635 246.899L238.021 265.233L263.096 241.182L244.392 214.008C242.363 211.044 242.133 207.214 243.827 204.038C246.827 198.391 249.315 192.321 251.221 185.986C252.227 182.633 254.962 180.092 258.385 179.351L291.788 172.028L291.806 137.284L257.767 131.708C254.255 131.126 251.344 128.655 250.197 125.285C248.15 119.25 245.662 113.674 242.574 108.239C240.774 105.045 240.915 101.092 242.998 98.075L262.567 69.242L237.334 45.35L209.543 64.213C209.243 64.584 208.943 64.901 208.608 65.184C205.749 67.743 201.585 68.343 198.109 66.702C194.209 64.867 190.115 63.455 185.969 62.149C182.087 60.914 179.405 57.349 179.264 53.273L171.941 19.27H137.214L131.585 53.714L131.214 53.643C130.349 57.243 128.126 61.142 125.038 62.131C120.75 63.507 116.55 64.972 112.545 66.895C108.981 68.571 104.799 67.971 101.905 65.325C101.64 65.096 101.376 64.813 101.129 64.531L74.465 44.503L49.39 68.537L67.23 97.705C67.442 97.987 67.671 98.27 67.848 98.57C69.86 101.587 70.018 105.469 68.254 108.628C65.325 113.869 62.854 119.445 60.896 125.162C59.749 128.532 56.837 131.003 53.308 131.567L19.287 137.125L19.269 171.869L52.672 179.21C56.078 179.969 58.83 182.51 59.836 185.862C61.777 192.409 64.389 198.726 67.582 204.637C69.205 207.637 69.117 211.272 67.353 214.183L49.901 243.157L75.117 267.049L100.686 247.603C103.598 245.38 107.568 245.009 110.832 246.65C115.508 248.979 120.361 250.885 125.407 252.473C128.866 253.567 131.424 256.514 132.024 260.096L137.213 291.79ZM156.553 214.167C125.161 214.167 99.61 188.616 99.61 157.224C99.61 125.815 125.161 100.264 156.553 100.264C187.962 100.264 213.513 125.815 213.513 157.224C213.531 188.616 187.98 214.167 156.553 214.167ZM156.553 119.533C135.784 119.533 118.879 136.438 118.879 157.224C118.879 177.993 135.784 194.898 156.553 194.898C177.34 194.898 194.244 177.993 194.244 157.224C194.244 136.437 177.34 119.533 156.553 119.533Z" fill="#504E76"/>
</svg>
