<svg xmlns="http://www.w3.org/2000/svg" width="128" height="128" viewBox="0 0 128 128" fill="none">
  <rect x="14" y="42" width="100" height="44" rx="12" fill="#FDF8E2" stroke="#F1642E" stroke-width="6"/>
  <path d="M30 64l3.5 8 8.5.5-6.5 5.5 2 8.5-7.5-4.5-7.5 4.5 2-8.5-6.5-5.5 8.5-.5L30 64z" fill="#F1642E"/>
  <path d="M46 64l3.5 8 8.5.5-6.5 5.5 2 8.5-7.5-4.5-7.5 4.5 2-8.5-6.5-5.5 8.5-.5L46 64z" fill="#F1642E"/>
  <path d="M62 64l3.5 8 8.5.5-6.5 5.5 2 8.5-7.5-4.5-7.5 4.5 2-8.5-6.5-5.5 8.5-.5L62 64z" fill="#F1642E"/>
  <path d="M78 64l3.5 8 8.5.5-6.5 5.5 2 8.5-7.5-4.5-7.5 4.5 2-8.5-6.5-5.5 8.5-.5L78 64z" fill="#F1642E"/>
  <path d="M94 64l3.5 8 8.5.5-6.5 5.5 2 8.5-7.5-4.5-7.5 4.5 2-8.5-6.5-5.5 8.5-.5L94 64z" fill="#F1642E"/>
</svg>
